<?xml version="1.0" encoding="UTF-8" standalone="no"?>
<!-- Created with Inkscape (http://www.inkscape.org/) -->

<svg
   width="210mm"
   height="297mm"
   viewBox="0 0 210 297"
   version="1.1"
   id="svg5"
   inkscape:version="1.2.1 (9c6d41e410, 2022-07-14)"
   sodipodi:docname="eniac_logo.svg"
   xml:space="preserve"
   xmlns:inkscape="http://www.inkscape.org/namespaces/inkscape"
   xmlns:sodipodi="http://sodipodi.sourceforge.net/DTD/sodipodi-0.dtd"
   xmlns="http://www.w3.org/2000/svg"
   xmlns:svg="http://www.w3.org/2000/svg"><sodipodi:namedview
     id="namedview7"
     pagecolor="#505050"
     bordercolor="#ffffff"
     borderopacity="1"
     inkscape:showpageshadow="0"
     inkscape:pageopacity="0"
     inkscape:pagecheckerboard="1"
     inkscape:deskcolor="#505050"
     inkscape:document-units="mm"
     showgrid="false"
     inkscape:zoom="2.8284271"
     inkscape:cx="356.02826"
     inkscape:cy="425.14795"
     inkscape:window-width="1920"
     inkscape:window-height="991"
     inkscape:window-x="-9"
     inkscape:window-y="-9"
     inkscape:window-maximized="1"
     inkscape:current-layer="layer1" /><defs
     id="defs2" /><g
     inkscape:label="Layer 1"
     inkscape:groupmode="layer"
     id="layer1"><g
       id="g537"><path
         style="font-size:3.175px;white-space:pre;inline-size:44.7656;stroke-width:0.0165364;fill:#000000"
         d="m 222.64643,518.7852 -1.38868,0.002 v 1.1875 c 0.0614,-0.0162 0.13307,-0.0329 0.2168,-0.041 0.0847,-0.008 0.17267,-0.0156 0.26367,-0.0156 0.095,0 0.17916,0.007 0.25586,0.0234 0.0775,0.0161 0.14317,0.042 0.19727,0.084 0.0484,0.0323 0.0866,0.0727 0.11328,0.13086 0.0283,0.0565 0.043,0.12238 0.043,0.20312 0,0.0815 -0.0137,0.15026 -0.0371,0.21485 -0.0234,0.0646 -0.0565,0.11978 -0.10156,0.16015 -0.0541,0.0484 -0.11416,0.0832 -0.1836,0.10743 -0.0678,0.0242 -0.13941,0.0312 -0.21289,0.0312 -0.10956,0 -0.22226,-0.0163 -0.33594,-0.0566 -0.11369,-0.0404 -0.21209,-0.0821 -0.29687,-0.13867 h -0.0215 v 0.32813 c 0.0807,0.0404 0.17809,0.0727 0.29493,0.0937 0.11675,0.0242 0.23912,0.041 0.36523,0.041 0.13541,0 0.25513,-0.0162 0.35742,-0.0566 0.10335,-0.0404 0.19135,-0.0953 0.26563,-0.16797 0.0678,-0.0646 0.12255,-0.15035 0.16211,-0.24804 0.0396,-0.0969 0.0578,-0.20007 0.0586,-0.30664 0,-0.13565 -0.0231,-0.25023 -0.0684,-0.33985 -0.0452,-0.0896 -0.11068,-0.16223 -0.19336,-0.21875 -0.0783,-0.0565 -0.16375,-0.089 -0.25781,-0.11328 -0.0941,-0.0242 -0.20307,-0.0312 -0.32813,-0.0312 -0.0339,0 -0.0751,0.002 -0.12109,0.004 -0.046,10e-4 -0.0923,0.004 -0.13672,0.008 v -0.61328 h 1.08985 z"
         transform="matrix(1.533205,0,0,1.7279435,-218.62226,-776.8114)"
         id="path283" /><path
         style="font-size:3.175px;white-space:pre;inline-size:44.7656;stroke-width:0.0165364;fill:#000000"
         d="m 220.1933,518.7383 c -0.19119,0 -0.36027,0.0323 -0.50391,0.0977 -0.14363,0.0646 -0.26056,0.15636 -0.35156,0.27343 -0.0958,0.12273 -0.16645,0.26558 -0.21094,0.42383 -0.0436,0.15825 -0.0644,0.33789 -0.0644,0.54297 0,0.19943 0.0227,0.37238 0.0703,0.51367 0.0485,0.1413 0.11814,0.25426 0.20703,0.33985 0.0711,0.0646 0.15308,0.11588 0.2461,0.15625 0.093,0.0404 0.19687,0.0566 0.31055,0.0566 0.2243,0 0.41243,-0.0725 0.5664,-0.22266 0.15502,-0.14856 0.23242,-0.33926 0.23242,-0.57422 l 0.002,-0.008 c 0,-0.13726 -0.0243,-0.25352 -0.0703,-0.34961 -0.0452,-0.0961 -0.11408,-0.17369 -0.20507,-0.23828 -0.0783,-0.0564 -0.15538,-0.0933 -0.23047,-0.10938 -0.0743,-0.0162 -0.16159,-0.0234 -0.25977,-0.0234 -0.11061,0 -0.20828,0.0149 -0.29297,0.0391 -0.0837,0.0242 -0.16907,0.0643 -0.25586,0.11914 0.0218,-0.23657 0.10009,-0.42443 0.23243,-0.5625 0.13233,-0.13645 0.30905,-0.20899 0.53125,-0.20899 0.0614,0 0.1196,0.008 0.17773,0.0254 0.0589,0.008 0.10374,0.0229 0.13281,0.0391 h 0.0137 v -0.29688 c -0.042,-0.008 -0.0838,-0.0153 -0.125,-0.0234 -0.0412,-0.005 -0.091,-0.006 -0.15234,-0.006 z m -0.33398,1.13675 v 0.002 c 0.063,0 0.12155,0.008 0.17968,0.0156 0.0581,0.008 0.11058,0.0322 0.15821,0.0644 0.0654,0.0484 0.11236,0.0995 0.14062,0.16406 0.0291,0.0646 0.043,0.1422 0.043,0.23828 v 0.002 c 0,0.17197 -0.0427,0.30249 -0.12891,0.39453 -0.0858,0.088 -0.20365,0.13672 -0.35351,0.13672 -0.0654,0 -0.12593,-0.006 -0.18164,-0.0312 -0.0549,-0.0161 -0.10471,-0.0644 -0.15235,-0.10157 -0.0589,-0.0565 -0.10671,-0.13014 -0.14062,-0.22461 -0.0331,-0.0953 -0.0488,-0.22361 -0.0488,-0.38671 0,-0.0323 8.7e-4,-0.0562 0.002,-0.082 10e-4,-0.0242 0.002,-0.0403 0.004,-0.0644 0.0799,-0.0404 0.15733,-0.0723 0.23242,-0.0957 0.0751,-0.0242 0.15825,-0.0312 0.2461,-0.0312 z"
         transform="matrix(1.533205,0,0,1.7279435,-218.62226,-776.8114)"
         id="path281" /></g><g
       id="g461"
       transform="translate(0.56126601,0.74835468)"><path
         style="font-size:3.175px;white-space:pre;inline-size:44.7656;fill:#000000;stroke-width:0.0165364"
         d="m 194.62689,518.47658 c -0.21799,0.008 -0.4831,0.10088 -0.79687,0.27539 -0.35588,0.19793 -0.58936,0.39901 -0.69922,0.60547 -0.10934,0.2074 -0.0957,0.43157 0.0391,0.67383 0.13265,0.2385 0.31321,0.36777 0.54492,0.38672 0.2331,0.0194 0.53232,-0.072 0.89454,-0.27344 0.35134,-0.1954 0.58218,-0.39705 0.69335,-0.60547 0.1126,-0.20797 0.10154,-0.43157 -0.0332,-0.67383 -0.13317,-0.23944 -0.31638,-0.36926 -0.55078,-0.38672 -0.0292,-0.002 -0.0607,-0.003 -0.0918,-0.002 z m 0.0332,0.28712 c 0.0824,-0.004 0.15307,0.0117 0.21484,0.0449 0.0667,0.0368 0.12478,0.097 0.17188,0.18164 0.0479,0.0861 0.0696,0.16652 0.0645,0.24024 -0.005,0.0732 -0.0347,0.1452 -0.0859,0.21679 -0.0521,0.0721 -0.1267,0.14135 -0.22266,0.20704 -0.0959,0.0657 -0.21229,0.13652 -0.3496,0.21289 -0.13911,0.0774 -0.26066,0.13774 -0.36524,0.18359 -0.10369,0.0453 -0.20151,0.0723 -0.29297,0.0801 l 0.002,0.004 c -0.0883,0.009 -0.16601,-0.005 -0.23243,-0.041 -0.0664,-0.0364 -0.12256,-0.0984 -0.16992,-0.1836 -0.0502,-0.0903 -0.073,-0.17234 -0.0664,-0.24804 0.006,-0.0766 0.037,-0.14938 0.0918,-0.2168 0.0567,-0.0746 0.12915,-0.14293 0.21875,-0.20508 0.0896,-0.0621 0.20482,-0.13258 0.34571,-0.21093 0.12828,-0.0713 0.2486,-0.13127 0.36132,-0.18165 0.11273,-0.0504 0.21172,-0.0778 0.29688,-0.082 0.006,-4.5e-4 0.0121,-0.002 0.0176,-0.002 z"
         transform="matrix(1.533205,0,0,1.7279435,-218.62226,-776.8114)"
         id="path279" /><path
         style="font-size:3.175px;white-space:pre;inline-size:44.7656;fill:#000000;stroke-width:0.0165364"
         d="m 193.64645,516.71291 c -0.21798,0.008 -0.4831,0.0989 -0.79687,0.27344 -0.35588,0.19792 -0.58936,0.40096 -0.69922,0.60742 -0.10934,0.2074 -0.0976,0.43156 0.0371,0.67383 0.13264,0.23849 0.31516,0.36777 0.54688,0.38672 0.23309,0.0194 0.53036,-0.072 0.89257,-0.27344 0.35134,-0.1954 0.58414,-0.39705 0.69532,-0.60547 0.11259,-0.20798 0.10153,-0.43352 -0.0332,-0.67578 -0.13316,-0.23944 -0.31834,-0.36731 -0.55273,-0.38477 -0.0292,-0.002 -0.0587,-0.003 -0.0899,-0.002 z m 0.0488,0.28711 c 0.0756,-0.002 0.14157,0.0139 0.19922,0.0449 0.0664,0.0364 0.12478,0.097 0.17188,0.18164 0.0479,0.0861 0.0677,0.16456 0.0625,0.23828 -0.005,0.0732 -0.0328,0.14715 -0.084,0.21875 -0.0521,0.0721 -0.1267,0.1394 -0.22265,0.20508 -0.0959,0.0657 -0.2123,0.13848 -0.34961,0.21484 -0.1391,0.0774 -0.26065,0.13775 -0.36524,0.1836 -0.10369,0.0453 -0.2015,0.0723 -0.29297,0.0801 l 0.002,0.004 c -0.0883,0.009 -0.16601,-0.005 -0.23243,-0.041 -0.0664,-0.0364 -0.12256,-0.0965 -0.16992,-0.18164 -0.0502,-0.0903 -0.073,-0.1743 -0.0664,-0.25 0.006,-0.0766 0.037,-0.14939 0.0918,-0.2168 0.0567,-0.0746 0.12915,-0.14293 0.21875,-0.20508 0.0896,-0.0621 0.20482,-0.13063 0.34571,-0.20898 0.12828,-0.0714 0.2486,-0.13322 0.36132,-0.1836 0.11273,-0.0504 0.21172,-0.0778 0.29688,-0.082 0.0112,-9e-4 0.0224,-0.002 0.0332,-0.002 z"
         transform="matrix(1.533205,0,0,1.7279435,-218.62226,-776.8114)"
         id="path277" /><path
         style="font-size:3.175px;white-space:pre;inline-size:44.7656;fill:#000000;stroke-width:0.0165364"
         d="m 192.70895,515.00588 -0.18359,0.10156 0.23438,0.41992 -1.35352,0.75196 -0.23242,-0.41993 -0.20703,0.11524 0.60742,1.09179 0.20703,-0.11523 -0.22852,-0.41211 1.81641,-1.00976 -0.11523,-0.21094 c -0.0613,0.0279 -0.11766,0.039 -0.16602,0.0351 -0.0469,-0.003 -0.0925,-0.019 -0.13867,-0.0488 -0.0369,-0.0232 -0.079,-0.0656 -0.125,-0.125 -0.045,-0.0599 -0.0836,-0.11691 -0.11524,-0.17383 z"
         transform="matrix(1.533205,0,0,1.7279435,-218.62226,-776.8114)"
         id="path275" /><path
         style="font-size:3.175px;white-space:pre;inline-size:44.7656;fill:#000000;stroke-width:0.0165364"
         d="m 191.66017,513.18556 c -0.21351,0.0135 -0.47088,0.10517 -0.77344,0.27344 -0.35588,0.19793 -0.58936,0.40097 -0.69922,0.60742 -0.10934,0.2074 -0.0957,0.43157 0.0391,0.67383 0.13265,0.2385 0.31516,0.36777 0.54688,0.38672 0.2331,0.0194 0.53036,-0.072 0.89258,-0.27344 0.35134,-0.1954 0.58218,-0.39705 0.69336,-0.60547 0.11259,-0.20797 0.10153,-0.43351 -0.0332,-0.67578 -0.13316,-0.23944 -0.31638,-0.3673 -0.55078,-0.38476 -0.0365,-0.003 -0.0757,-0.004 -0.11523,-0.002 z m 0.0566,0.28711 c 0.0824,-0.004 0.15502,0.01 0.21679,0.043 0.0664,0.0364 0.12283,0.097 0.16993,0.18164 0.0479,0.0861 0.0696,0.16652 0.0644,0.24024 -0.005,0.0732 -0.0347,0.1452 -0.0859,0.21679 -0.0521,0.0721 -0.1267,0.14135 -0.22265,0.20704 -0.0959,0.0657 -0.2123,0.13652 -0.34961,0.21289 -0.1391,0.0774 -0.26066,0.1397 -0.36524,0.18554 -0.10369,0.0453 -0.2015,0.0723 -0.29297,0.0801 l 0.002,0.002 c -0.0883,0.009 -0.16601,-0.005 -0.23243,-0.041 -0.0664,-0.0364 -0.12256,-0.0965 -0.16992,-0.18164 -0.0502,-0.0903 -0.073,-0.17234 -0.0664,-0.24805 0.006,-0.0766 0.037,-0.14938 0.0918,-0.2168 0.0567,-0.0746 0.12915,-0.14292 0.21875,-0.20507 0.0896,-0.0622 0.20482,-0.13258 0.34571,-0.21094 0.12828,-0.0713 0.25056,-0.13127 0.36328,-0.18164 0.11272,-0.0504 0.20976,-0.0778 0.29492,-0.082 0.006,-4.5e-4 0.0121,-0.002 0.0176,-0.002 z"
         transform="matrix(1.533205,0,0,1.7279435,-218.62226,-776.8114)"
         id="path273" /></g><path
       style="fill:#191919;fill-rule:evenodd;stroke-width:0;stroke-miterlimit:4"
       id="path5222"
       stroke-miterlimit="4"
       d="m 99.614919,99.031663 -0.24474,1.086827 1.046381,0.23564 0.24475,-1.086828 z m -4.18553,-0.942553 -0.24475,1.086823 1.04639,0.235639 0.24474,-1.086823 z m -0.97899,4.34731 2.09277,0.47128 -0.24474,1.08683 -2.09277,-0.47127 z m 5.23192,1.17819 -0.24474,1.08684 -2.09277,-0.47128 0.24475,-1.08683 z m 1.468481,-6.520966 0.24475,-1.086828 1.04638,0.235639 -0.24474,1.086828 z m -5.231921,-1.178192 1.04638,0.235639 -0.24474,1.086824 3.13915,0.706915 0.244741,-1.086825 1.04639,0.235639 -0.24475,1.086825 1.04639,0.235638 -0.24475,1.086833 1.04639,0.235639 -0.24475,1.086821 1.04639,0.23564 -0.73424,3.26049 -1.04639,-0.23564 0.4895,-2.17365 -1.04639,-0.23564 -0.48949,2.17365 -1.046391,-0.23564 0.24475,-1.08683 -5.23192,-1.17819 -0.24475,1.08683 -1.04637,-0.23563 0.48949,-2.17366 -1.04639,-0.235639 -0.48949,2.173659 -1.04639,-0.23564 0.73424,-3.260491 1.04639,0.235639 0.24474,-1.086824 1.04639,0.235639 0.24475,-1.086833 1.04637,0.235637 z m -0.80163,-1.322465 1.04637,0.235637 -0.24474,1.086828 -1.04638,-0.235636 z" /><g
       id="g533"><path
         style="font-size:3.175px;white-space:pre;inline-size:44.7656;stroke-width:0.0165364;fill:#000000"
         d="m 219.17384,510.72463 -6.92774,18.25 h 2.56836 l 1.86719,-5.08594 h 8.23047 l 1.86719,5.08594 h 2.69726 l -6.92773,-18.25 z m 1.62305,2.11914 3.33593,8.96094 h -6.68554 z"
         transform="matrix(1.533205,0,0,1.7279435,-218.62226,-776.8114)"
         id="path269" /><path
         style="font-size:3.175px;white-space:pre;inline-size:44.7656;fill:#000000;stroke-width:0.0269157"
         d="m 63.28684,105.6919 v 31.53497 h 3.626398 c 0.264217,-12.68836 0,-17.24095 0,-28.21075 l 13.834768,28.2107 h 4.803255 v -31.53497 h -3.626398 v 25.75377 L 69.302876,105.69185 Z"
         id="path267"
         sodipodi:nodetypes="ccccccccccc" /><path
         style="font-size:3.175px;white-space:pre;inline-size:44.7656;stroke-width:0.0165364;fill:#000000"
         d="m 167.31642,510.72463 v 18.25 h 12.53906 v -2.15625 h -10.00781 v -6.7793 h 10.00781 v -2.15625 h -10.00781 v -5.00195 h 10.00781 v -2.15625 z"
         transform="matrix(1.533205,0,0,1.7279435,-218.62226,-776.8114)"
         id="path265" /><path
         style="font-size:3.175px;white-space:pre;inline-size:44.7656;stroke-width:0.0165364;fill:#000000"
         d="m 240.60939,510.38283 v 0.004 0.006 c -1.39753,0 -2.67186,0.20838 -3.82227,0.625 -1.14187,0.41662 -2.11624,1.02165 -2.92578,1.81445 -0.83508,0.81709 -1.47482,1.81708 -1.91797,3.00195 -0.44318,1.18487 -0.66406,2.52958 -0.66406,4.03321 0,1.58525 0.22931,2.97842 0.68945,4.17968 0.46014,1.19302 1.09991,2.17868 1.91797,2.95508 0.83511,0.79288 1.81462,1.37612 2.93945,1.75195 1.13336,0.36737 2.38905,0.55274 3.76954,0.55274 0.73279,0 1.40279,-0.0564 2.00781,-0.17188 0.61355,-0.10658 1.1794,-0.2387 1.69922,-0.39453 0.61362,-0.18732 1.10944,-0.36627 1.48437,-0.53906 0.38342,-0.17197 0.80867,-0.35653 1.27735,-0.55273 v -2.84375 h -0.17969 c -0.92885,0.80095 -1.92505,1.40209 -2.99024,1.80273 -1.06518,0.40047 -2.20721,0.60156 -3.42578,0.60156 -0.88624,0 -1.73023,-0.14305 -2.53125,-0.42968 -0.79255,-0.29389 -1.48747,-0.74518 -2.08398,-1.34961 -0.57099,-0.58052 -1.03789,-1.3304 -1.4043,-2.25391 -0.35793,-0.92335 -0.53711,-2.02759 -0.53711,-3.31055 0,-1.22581 0.16044,-2.30474 0.48438,-3.23633 0.33232,-0.93973 0.79288,-1.7153 1.38086,-2.32812 0.60498,-0.62978 1.29166,-1.09064 2.05859,-1.38477 0.77543,-0.30278 1.64449,-0.45507 2.60742,-0.45507 1.17594,0 2.27946,0.1938 3.31055,0.57812 0.35655,0.13323 1.09433,0.67161 2,0.67969 0.52207,0.005 0.67757,0.38421 1.08203,0.58203 0.36066,0.32377 1.43936,1.55465 2.60547,1.2207 0.67338,-0.19297 1.20613,0.35699 1.85547,0.67188 0.33886,0.16551 0.59967,0.0807 0.94336,0.59179 0.30117,0.18571 0.35536,0.85571 0.35351,1.38868 -0.001,0.38433 -0.042,1.06577 0.41016,1.16992 1.41707,0.32619 2.46331,0.73382 2.9082,0.37695 l 0.0566,-0.89258 2.75196,0.0176 0.88281,-0.69922 -0.90821,-0.57226 h -2.68359 l 0.0293,-1.6836 2.55469,0.0723 1.00976,-0.59961 -1,-0.57422 -2.72461,-0.0391 -0.0234,-0.75586 c -0.26903,-0.42065 -1.39699,-0.3238 -2.73046,-0.22852 -0.50471,0.0404 -0.50435,0.54093 -0.6211,1.00196 -0.0654,0.25756 0.01,1.17573 -0.21875,1.16992 -0.85067,-0.0242 -1.8643,-1.15044 -2.78711,-0.99219 -1.10808,0.18974 -1.9576,-0.79529 -2.29883,-1.42773 -0.25788,-0.47798 -0.65232,-0.74118 -0.77343,-0.88086 -0.48711,-0.56114 -0.76631,-0.99162 -1.36328,-1.32032 -0.58827,-0.32377 -1.13444,-0.51595 -1.4004,-0.57812 -1.01406,-0.23738 -2.0321,-0.35547 -3.05468,-0.35547 z"
         transform="matrix(1.533205,0,0,1.7279435,-218.62226,-776.8114)"
         id="path263" /><path
         d="M 85.138598,189.81642 H 62.311479 v -5.90089 h 7.570218 V 137.9119 h -7.570218 v -5.90089 h 22.827119 v 5.90089 H 77.56838 v 46.00363 h 7.570218 z"
         id="path453"
         style="font-size:79.5067px;stroke-width:6.62556"
         transform="scale(1.3184926,0.75844186)" /></g><g
       id="g526"
       transform="translate(0.65481034,1.8708867)"><path
         style="font-size:3.175px;white-space:pre;inline-size:44.7656;fill:#000000;stroke-width:0.0165364"
         d="m 190.92572,522.59966 c -0.22218,0.005 -0.49377,0.10027 -0.8164,0.28515 -0.35332,0.20247 -0.5842,0.40739 -0.69141,0.61524 -0.10641,0.20925 -0.0907,0.43378 0.0469,0.67383 0.13569,0.23678 0.31885,0.36292 0.55079,0.3789 0.23332,0.0164 0.53101,-0.0771 0.89062,-0.2832 0.34881,-0.19988 0.57705,-0.40541 0.68555,-0.61523 0.10992,-0.2094 0.0949,-0.43332 -0.043,-0.67383 -0.13622,-0.23772 -0.32009,-0.36445 -0.55469,-0.37891 -0.0219,-0.001 -0.0454,-0.002 -0.0684,-0.002 z m 0.0293,0.28711 c 0.0756,-0.003 0.14312,0.0127 0.20117,0.043 0.0669,0.0355 0.1237,0.0937 0.17188,0.17773 0.049,0.0855 0.0726,0.16646 0.0684,0.24023 -0.004,0.0733 -0.0337,0.14455 -0.084,0.2168 -0.0512,0.0728 -0.12369,0.14406 -0.21875,0.21094 -0.0951,0.0669 -0.21133,0.13868 -0.34766,0.2168 -0.13809,0.0791 -0.25734,0.14227 -0.36132,0.18945 -0.1031,0.0467 -0.20162,0.0751 -0.29297,0.084 l 0.002,0.004 c -0.0882,0.0102 -0.16555,-0.004 -0.23242,-0.0391 -0.0669,-0.0355 -0.12539,-0.0952 -0.17383,-0.17969 -0.0514,-0.0897 -0.0739,-0.17226 -0.0684,-0.24805 0.005,-0.0766 0.034,-0.14868 0.0879,-0.21679 0.0557,-0.0754 0.128,-0.14569 0.2168,-0.20899 0.0888,-0.0633 0.20387,-0.13469 0.34375,-0.21484 0.12731,-0.073 0.24731,-0.13569 0.35937,-0.1875 0.11207,-0.0518 0.20983,-0.0806 0.29493,-0.0859 0.0112,-10e-4 0.0224,-0.002 0.0332,-0.002 z"
         transform="matrix(1.533205,0,0,1.7279435,-218.62226,-776.8114)"
         id="path289" /><path
         style="font-size:3.175px;white-space:pre;inline-size:44.7656;fill:#000000;stroke-width:0.0165364"
         d="m 189.94525,520.90435 -0.18359,0.10546 0.23828,0.41602 -1.3418,0.76953 -0.23828,-0.41601 -0.20508,0.11718 0.6211,1.08399 0.20508,-0.11719 -0.23438,-0.4082 1.80469,-1.03516 -0.11914,-0.20898 c -0.0609,0.0287 -0.11566,0.0423 -0.16406,0.0391 -0.0469,-0.003 -0.0941,-0.0196 -0.14063,-0.0488 -0.0372,-0.0227 -0.0783,-0.0642 -0.125,-0.12305 -0.0458,-0.0594 -0.0848,-0.11731 -0.11719,-0.17382 z"
         transform="matrix(1.533205,0,0,1.7279435,-218.62226,-776.8114)"
         id="path287" /><path
         style="font-size:3.175px;white-space:pre;inline-size:44.7656;fill:#000000;stroke-width:0.0165364"
         d="m 188.94135,519.15435 -0.1836,0.10351 0.23828,0.41797 -1.34179,0.76953 -0.23828,-0.41797 -0.20508,0.11719 0.62109,1.08398 0.20508,-0.11718 -0.23438,-0.40821 1.80469,-1.03515 -0.11914,-0.20899 c -0.0609,0.0287 -0.11565,0.0423 -0.16406,0.0391 -0.0469,-0.003 -0.0941,-0.0196 -0.14063,-0.0488 -0.0372,-0.0227 -0.0783,-0.0623 -0.125,-0.1211 -0.0458,-0.0594 -0.0848,-0.11732 -0.11718,-0.17382 z"
         transform="matrix(1.533205,0,0,1.7279435,-218.62226,-776.8114)"
         id="path285" /><path
         d="m 139.75506,2.0578084 h -2.12733 V 1.6566242 h 0.8182 v -2.63409135 h -0.8182 V -1.3364215 q 0.16628,0 0.35631,-0.026394 0.19004,-0.029033 0.28769,-0.08182 0.12141,-0.065984 0.19004,-0.1662804 0.0713,-0.1029354 0.0818,-0.2744944 h 0.4091 v 3.5420346 h 0.80237 z"
         id="path517"
         style="font-size:5.40543px;stroke-width:0.450451"
         transform="matrix(0.49950682,0.86140914,-0.86437414,0.51134476,0,0)" /></g></g></svg>
