<svg xmlns="http://www.w3.org/2000/svg" xml:space="preserve" id="svg5" version="1.1" viewBox="0 0 210 297">
  <g id="layer1">
    <g id="g537">
      <path id="path283" d="m222.646 518.785-1.388.002v1.188c.061-.017.133-.033.217-.041.084-.008.172-.016.263-.016.095 0 .18.007.256.023a.47.47 0 0 1 .197.084.306.306 0 0 1 .114.131.444.444 0 0 1 .043.203c0 .082-.014.15-.037.215a.389.389 0 0 1-.102.16.533.533 0 0 1-.184.108.628.628 0 0 1-.213.031.997.997 0 0 1-.335-.056 1.334 1.334 0 0 1-.297-.14h-.022v.329c.08.04.178.073.295.094.117.024.24.04.365.04a.974.974 0 0 0 .358-.056.708.708 0 0 0 .428-.416c.04-.097.057-.2.058-.307a.754.754 0 0 0-.068-.34.578.578 0 0 0-.194-.218.744.744 0 0 0-.257-.113 1.34 1.34 0 0 0-.329-.032c-.034 0-.075.002-.12.004a2.026 2.026 0 0 0-.137.008v-.613h1.09z" style="font-size:3.175px;white-space:pre;inline-size:44.7656;stroke-width:.0165364;fill:#000" transform="matrix(1.5332 0 0 1.728 -218.622 -776.811)"/>
      <path id="path281" d="M220.193 518.738c-.19 0-.36.033-.504.098a.91.91 0 0 0-.351.273 1.221 1.221 0 0 0-.211.424 2.044 2.044 0 0 0-.065.543c0 .2.023.373.07.514a.841.841 0 0 0 .208.34.885.885 0 0 0 .246.156c.093.04.197.057.31.057a.777.777 0 0 0 .8-.797l.001-.008a.803.803 0 0 0-.07-.35.606.606 0 0 0-.205-.238.623.623 0 0 0-.23-.11 1.239 1.239 0 0 0-.553.016c-.084.024-.17.064-.256.12.022-.237.1-.425.232-.563a.708.708 0 0 1 .532-.21.61.61 0 0 1 .177.026.387.387 0 0 1 .133.04h.014v-.298l-.125-.023a1.327 1.327 0 0 0-.153-.006zm-.334 1.137v.002c.063 0 .122.008.18.016a.409.409 0 0 1 .299.228c.029.065.043.142.043.238v.002c0 .172-.043.303-.13.395a.474.474 0 0 1-.353.137.432.432 0 0 1-.181-.032c-.055-.016-.105-.064-.153-.101a.573.573 0 0 1-.14-.225 1.215 1.215 0 0 1-.049-.386 1.735 1.735 0 0 1 .006-.147c.08-.04.157-.072.232-.096a.805.805 0 0 1 .247-.03z" style="font-size:3.175px;white-space:pre;inline-size:44.7656;stroke-width:.0165364;fill:#000" transform="matrix(1.5332 0 0 1.728 -218.622 -776.811)"/>
    </g>
    <g id="g461" transform="translate(.561 .748)">
      <path id="path279" d="M194.627 518.477c-.218.008-.483.1-.797.275-.356.198-.59.399-.7.605-.109.208-.095.432.04.674.133.239.313.368.545.387.233.02.532-.072.894-.273.352-.196.583-.398.694-.606.112-.208.101-.431-.033-.674-.134-.24-.317-.369-.551-.386a.925.925 0 0 0-.092-.002zm.033.287a.402.402 0 0 1 .215.045.45.45 0 0 1 .172.181c.048.086.07.167.064.24a.423.423 0 0 1-.086.217.894.894 0 0 1-.222.207 4.472 4.472 0 0 1-.35.213c-.139.078-.26.138-.365.184a.937.937 0 0 1-.293.08l.002.004a.394.394 0 0 1-.232-.041.45.45 0 0 1-.17-.184.437.437 0 0 1-.067-.248.39.39 0 0 1 .092-.217.953.953 0 0 1 .219-.205 4.652 4.652 0 0 1 .707-.393.85.85 0 0 1 .297-.081l.017-.002z" style="font-size:3.175px;white-space:pre;inline-size:44.7656;fill:#000;stroke-width:.0165364" transform="matrix(1.5332 0 0 1.728 -218.622 -776.811)"/>
      <path id="path277" d="M193.646 516.713c-.218.008-.483.099-.796.273-.356.198-.59.401-.7.608-.109.207-.097.431.037.674.133.238.316.367.547.386.233.02.53-.072.893-.273.351-.196.584-.397.695-.606.113-.208.102-.433-.033-.675-.133-.24-.318-.368-.553-.385a.886.886 0 0 0-.09-.002zm.05.287a.39.39 0 0 1 .198.045.449.449 0 0 1 .172.182.426.426 0 0 1 .063.238.426.426 0 0 1-.084.219.89.89 0 0 1-.223.205 4.433 4.433 0 0 1-.35.215c-.139.077-.26.137-.365.183a.937.937 0 0 1-.293.08l.002.004a.394.394 0 0 1-.232-.04.444.444 0 0 1-.17-.182.443.443 0 0 1-.066-.25.39.39 0 0 1 .091-.217.953.953 0 0 1 .22-.205c.089-.062.204-.13.345-.21.128-.07.248-.133.361-.183a.85.85 0 0 1 .297-.082l.033-.002z" style="font-size:3.175px;white-space:pre;inline-size:44.7656;fill:#000;stroke-width:.0165364" transform="matrix(1.5332 0 0 1.728 -218.622 -776.811)"/>
      <path id="path275" d="m192.709 515.006-.184.101.235.42-1.354.752-.232-.42-.207.116.607 1.091.207-.115-.228-.412 1.816-1.01-.115-.21a.34.34 0 0 1-.166.034.287.287 0 0 1-.139-.048.537.537 0 0 1-.125-.125 1.528 1.528 0 0 1-.115-.174z" style="font-size:3.175px;white-space:pre;inline-size:44.7656;fill:#000;stroke-width:.0165364" transform="matrix(1.5332 0 0 1.728 -218.622 -776.811)"/>
      <path id="path273" d="M191.66 513.186c-.213.013-.47.105-.773.273-.356.198-.59.401-.7.607-.109.208-.095.432.04.674.132.239.315.368.546.387.234.02.53-.072.893-.273.351-.196.582-.398.693-.606.113-.208.102-.433-.033-.676-.133-.24-.316-.367-.55-.384a.877.877 0 0 0-.116-.002zm.057.287a.41.41 0 0 1 .217.043.445.445 0 0 1 .17.181c.047.086.07.167.064.24a.423.423 0 0 1-.086.217.894.894 0 0 1-.223.207 4.472 4.472 0 0 1-.35.213c-.138.078-.26.14-.365.186a.937.937 0 0 1-.292.08l.002.002a.394.394 0 0 1-.233-.041.444.444 0 0 1-.17-.182.437.437 0 0 1-.066-.248.39.39 0 0 1 .092-.217.953.953 0 0 1 .218-.205 4.669 4.669 0 0 1 .709-.393.84.84 0 0 1 .295-.081l.018-.002z" style="font-size:3.175px;white-space:pre;inline-size:44.7656;fill:#000;stroke-width:.0165364" transform="matrix(1.5332 0 0 1.728 -218.622 -776.811)"/>
    </g>
    <path id="path5222" stroke-miterlimit="4" d="m99.615 99.032-.245 1.086 1.047.236.244-1.087zm-4.186-.943-.244 1.087 1.046.236.245-1.087zm-.979 4.347 2.093.472-.245 1.087-2.092-.472zm5.232 1.179-.244 1.086-2.093-.47.245-1.088zm1.469-6.521.245-1.087 1.046.235-.245 1.087zm-5.232-1.179 1.046.236-.244 1.087 3.139.707.244-1.087 1.047.236-.245 1.086 1.046.236-.244 1.087 1.046.236-.245 1.086 1.047.236-.735 3.26-1.046-.235.49-2.174-1.047-.235-.49 2.173-1.046-.235.245-1.087-5.232-1.178-.245 1.086-1.046-.235.49-2.174-1.047-.236-.49 2.174-1.046-.235.734-3.261 1.047.236.245-1.087 1.046.235.245-1.086 1.046.235zm-.802-1.322 1.047.236-.245 1.086-1.047-.235z" style="fill:#191919;fill-rule:evenodd;stroke-width:0;stroke-miterlimit:4"/>
    <g id="g533">
      <path id="path269" d="m219.174 510.725-6.928 18.25h2.568l1.868-5.086h8.23l1.867 5.086h2.698l-6.928-18.25zm1.623 2.119 3.336 8.96h-6.686z" style="font-size:3.175px;white-space:pre;inline-size:44.7656;stroke-width:.0165364;fill:#000" transform="matrix(1.5332 0 0 1.728 -218.622 -776.811)"/>
      <path id="path267" d="M63.287 105.692v31.535h3.626c.264-12.688 0-17.241 0-28.21l13.835 28.21h4.803v-31.535h-3.626v25.754l-12.622-25.754Z" style="font-size:3.175px;white-space:pre;inline-size:44.7656;fill:#000;stroke-width:.0269157"/>
      <path id="path265" d="M167.316 510.725v18.25h12.54v-2.157h-10.008v-6.779h10.007v-2.156h-10.007v-5.002h10.007v-2.156z" style="font-size:3.175px;white-space:pre;inline-size:44.7656;stroke-width:.0165364;fill:#000" transform="matrix(1.5332 0 0 1.728 -218.622 -776.811)"/>
      <path id="path263" d="M240.61 510.383v.01c-1.398 0-2.672.208-3.823.625-1.142.416-2.116 1.021-2.926 1.814-.835.817-1.474 1.817-1.918 3.002-.443 1.185-.664 2.53-.664 4.033 0 1.586.23 2.979.69 4.18.46 1.193 1.1 2.179 1.918 2.955a7.8 7.8 0 0 0 2.94 1.752c1.133.368 2.388.553 3.769.553.733 0 1.403-.057 2.008-.172a14.66 14.66 0 0 0 1.699-.395c.613-.187 1.11-.366 1.484-.539.384-.172.809-.356 1.277-.552v-2.844h-.18c-.928.8-1.924 1.402-2.99 1.803a9.655 9.655 0 0 1-3.425.601c-.886 0-1.73-.143-2.531-.43a5.664 5.664 0 0 1-2.084-1.35c-.571-.58-1.038-1.33-1.405-2.253-.358-.923-.537-2.028-.537-3.31 0-1.226.16-2.305.484-3.237.333-.94.793-1.715 1.381-2.328a5.63 5.63 0 0 1 2.059-1.385c.775-.303 1.644-.455 2.607-.455 1.176 0 2.28.194 3.31.578.357.134 1.095.672 2 .68.523.005.678.384 1.083.582.36.324 1.44 1.555 2.605 1.22.674-.192 1.207.358 1.856.673.339.165.6.08.943.591.301.186.356.856.354 1.39-.001.383-.042 1.065.41 1.169 1.417.326 2.463.734 2.908.377l.057-.893 2.752.018.882-.7-.908-.572h-2.683l.029-1.683 2.555.072 1.01-.6-1-.574-2.725-.039-.024-.756c-.269-.42-1.397-.323-2.73-.228-.505.04-.504.54-.621 1.002-.066.257.01 1.176-.219 1.17-.85-.024-1.864-1.15-2.787-.992-1.108.19-1.958-.796-2.299-1.428-.258-.478-.652-.741-.773-.881-.487-.561-.767-.992-1.364-1.32-.588-.324-1.134-.516-1.4-.578a13.358 13.358 0 0 0-3.055-.356z" style="font-size:3.175px;white-space:pre;inline-size:44.7656;stroke-width:.0165364;fill:#000" transform="matrix(1.5332 0 0 1.728 -218.622 -776.811)"/>
      <path id="path453" d="M85.139 189.816H62.31v-5.9h7.57v-46.004h-7.57v-5.901H85.14v5.9h-7.57v46.005h7.57z" style="font-size:79.5067px;stroke-width:6.62556" transform="scale(1.3185 .7584)"/>
    </g>
    <g id="g526" transform="translate(.655 1.87)">
      <path id="path289" d="M190.926 522.6c-.222.005-.494.1-.817.285-.353.202-.584.407-.691.615-.106.21-.09.434.047.674.136.237.319.363.55.379.234.016.532-.077.891-.283.349-.2.577-.406.686-.616.11-.209.095-.433-.043-.673-.136-.238-.32-.365-.555-.38a1.513 1.513 0 0 0-.068-.001zm.029.287a.396.396 0 0 1 .201.043.439.439 0 0 1 .172.178.44.44 0 0 1 .068.24.42.42 0 0 1-.084.217.89.89 0 0 1-.218.21 4.528 4.528 0 0 1-.348.217c-.138.08-.257.143-.361.19a.94.94 0 0 1-.293.084l.002.004a.392.392 0 0 1-.233-.04.447.447 0 0 1-.173-.18.438.438 0 0 1-.069-.247.385.385 0 0 1 .088-.217.959.959 0 0 1 .217-.209c.089-.063.204-.135.344-.215.127-.073.247-.135.359-.187a.847.847 0 0 1 .328-.088z" style="font-size:3.175px;white-space:pre;inline-size:44.7656;fill:#000;stroke-width:.0165364" transform="matrix(1.5332 0 0 1.728 -218.622 -776.811)"/>
      <path id="path287" d="m189.945 520.904-.183.106.238.416-1.342.77-.238-.417-.205.118.62 1.084.206-.118-.234-.408 1.804-1.035-.119-.209a.34.34 0 0 1-.164.04.301.301 0 0 1-.14-.05.53.53 0 0 1-.126-.123 1.541 1.541 0 0 1-.117-.174z" style="font-size:3.175px;white-space:pre;inline-size:44.7656;fill:#000;stroke-width:.0165364" transform="matrix(1.5332 0 0 1.728 -218.622 -776.811)"/>
      <path id="path285" d="m188.941 519.154-.183.104.238.418-1.342.77-.238-.419-.205.118.621 1.084.205-.118-.234-.408 1.804-1.035-.119-.209a.34.34 0 0 1-.164.04.301.301 0 0 1-.14-.05.517.517 0 0 1-.125-.12 1.54 1.54 0 0 1-.118-.175z" style="font-size:3.175px;white-space:pre;inline-size:44.7656;fill:#000;stroke-width:.0165364" transform="matrix(1.5332 0 0 1.728 -218.622 -776.811)"/>
      <path id="path517" d="M139.755 2.058h-2.127v-.401h.818V-.977h-.818v-.36q.166 0 .356-.026.19-.029.288-.082.121-.066.19-.166.071-.103.082-.274h.409v3.542h.802z" style="font-size:5.40543px;stroke-width:.450451" transform="matrix(.4995 .8614 -.8644 .5113 0 0)"/>
    </g>
  </g>
</svg>
